<?xml version="1.0" encoding="UTF-8" standalone="no"?>
<svg
   version="1.0"
   width="955.69897pt"
   height="953.33868pt"
   viewBox="0 0 955.69897 953.33869"
   preserveAspectRatio="xMidYMid"
   id="svg31"
   xmlns="http://www.w3.org/2000/svg"
   xmlns:svg="http://www.w3.org/2000/svg">
  <defs
     id="defs31" />
  <path
     id="path2"
     style="fill:currentColor;stroke:none;stroke-width:0.260458"
     d="m 466.68249,0.01427894 c -19.83956,0.08546 -35.76308,0.573059 -39.08391,1.35443106 l -7.81373,2.083167 10.41958,2.865268 c 13.80426,3.906864 103.14198,27.869747 133.61552,35.943933 13.28334,3.38595 32.55822,8.592289 42.71606,11.457323 10.15785,2.865034 19.01062,4.950492 19.27108,4.429577 1.56275,-1.562746 14.06521,-31.256712 13.54429,-31.777628 -2.86503,-2.604576 -47.92394,-15.105526 -71.36513,-19.793763 -22.13889,-4.42778 -39.84848,-5.73134406 -80.47986,-6.51271706 -7.16259,-0.06511 -14.21073,-0.07808 -20.8239,-0.04959 z M 352.06714,16.21404 C 350.5044,15.693124 336.70192,19.599728 321.33492,25.069338 189.2829,71.691253 84.836352,171.96744 33.00528,302.45671 c -9.116017,22.92027 -9.375719,25.52383 -3.124736,23.70063 4.948695,-1.30229 54.174428,-14.58589 288.325836,-77.09572 191.69681,-51.31015 268.01345,-71.62329 286.50594,-76.83245 l 13.0216,-3.64742 V 127.94882 87.319723 l -13.0216,-3.64742 C 592.21035,80.025893 539.077,65.962203 413.27596,32.623625 380.97922,24.028524 353.36943,16.734955 352.06714,16.21404 Z m 317.62732,23.406832 c -1.75809,0.293014 -2.86529,1.857297 -4.81872,4.982788 -2.34412,3.385949 -7.29105,15.366245 -11.19791,26.565923 -6.51144,18.49249 -7.29485,23.70112 -7.29485,56.779237 0,32.81767 0.78442,38.54927 7.03541,56.26039 24.22256,68.76081 80.74009,115.12047 151.84502,124.49695 25.52485,3.6464 54.17417,0.52117 82.30359,-8.8553 32.29675,-10.67877 31.7761,-9.89789 18.49276,-36.98548 C 880.79537,211.81569 836.5201,154.2576 794.0655,117.53307 760.72693,88.622273 709.15403,55.023502 678.42003,42.261078 c -4.55801,-1.953432 -6.96748,-2.933221 -8.72557,-2.640206 z M 624.50608,197.23081 c -0.78137,0 -6.77343,1.82422 -13.28488,3.64743 -11.72059,3.38595 -82.04415,22.13863 -207.06381,55.73767 -37.24544,9.89739 -77.0929,20.57513 -88.55304,23.70063 -26.30622,7.03235 -101.57975,27.09014 -209.66966,56.00094 -46.621911,12.50196 -86.472191,23.69935 -88.816309,25.00164 -8.0741867,4.16732 -19.5340617,94.54765 -16.66902773,130.4908 0.520915,6.25099 1.56402203,21.09655 2.60585303,33.33806 2.604576,36.72452 2.604055,36.72275 17.7105967,15.10477 17.450661,-25.26439 50.529559,-58.08205 75.012579,-74.23042 33.859488,-22.1389 68.239108,-34.37736 112.516908,-39.84697 52.61244,-6.25099 100.53412,5.46909 182.31781,45.05865 l 48.96934,23.70062 113.29907,-113.29906 113.29907,-113.55851 -14.06701,-21.09858 c -7.81373,-11.46014 -16.66725,-27.60749 -20.0532,-35.42122 -3.12549,-8.07419 -6.51246,-14.5869 -7.55429,-14.32645 z m 63.02871,91.42217 -109.91108,109.91106 C 517.458,458.72975 467.97206,509.00138 467.97206,510.04321 c 0,5.46961 121.11178,66.67361 160.44088,80.99878 26.82714,9.63693 53.65428,17.97511 54.69611,16.67283 0.26045,-0.26046 8.85477,-31.51842 18.75216,-69.54524 10.15785,-38.02681 26.82868,-100.01445 36.72607,-138.04126 10.15784,-38.02681 18.49275,-69.80163 18.49275,-70.583 0,-0.78137 -6.77495,-4.16834 -14.84914,-7.55429 -8.33464,-3.38595 -23.95931,-12.24049 -34.89853,-19.79376 z m 240.14243,26.30645 -14.84533,6.50892 c -8.33464,3.6464 -15.10475,8.07647 -15.10475,10.16013 0,1.82321 11.71804,47.14205 26.04321,100.79632 14.32517,53.65427 26.04704,98.19305 26.04704,99.49534 0,1.04183 1.30255,0.78059 2.8653,-0.78216 4.68823,-4.68823 3.64768,-93.24458 -1.30101,-125.80178 -4.42778,-28.12943 -14.32596,-69.01924 -20.31648,-82.56304 z m -141.94813,23.70063 -2.8653,10.67902 c -3.38594,13.02288 -29.17253,108.87129 -37.76763,140.64712 -18.23203,67.19807 -32.29648,120.85182 -32.29648,123.19593 0,2.60458 24.22308,6.51197 60.42669,9.63746 19.53432,1.8232 69.28376,-2.3431 97.15272,-8.07317 20.83661,-4.42778 61.72896,-16.14762 64.33353,-18.7522 1.04183,-1.04183 -8.07596,-38.80868 -20.05701,-83.86785 C 902.41411,467.0672 887.04684,409.50479 880.5354,384.50086 l -11.98003,-45.8408 H 827.14031 Z M 233.59073,455.24792 c -16.18093,-0.16278 -32.32957,0.61859 -41.44558,2.44179 -39.85002,7.81373 -82.56379,30.47303 -114.600078,60.68611 -15.887913,14.84608 -40.633188,48.70761 -51.311951,69.80468 l -8.855299,17.71062 8.077,24.21951 c 10.93922,31.51537 29.429914,70.58579 46.35966,98.1943 14.32517,22.92027 42.453318,60.16417 52.090248,68.75927 5.73007,5.20915 5.73337,5.21043 13.80756,-5.20787 16.92975,-20.57616 58.59992,-61.98712 78.91561,-77.61458 87.77422,-67.71898 156.79854,-78.91866 292.23651,-46.88237 108.08991,25.26439 150.02054,31.51409 196.12154,28.64906 48.18466,-3.12549 97.4137,-16.66929 141.95196,-39.06864 l 18.22948,-9.37801 -19.53432,2.08316 C 810.47129,653.0309 741.97093,651.46891 716.70654,646.52022 638.82971,631.93459 575.01759,605.36765 447.1329,534.26272 362.48417,487.11989 317.94592,467.58786 275.23087,458.47184 c -9.24625,-1.95343 -25.45921,-3.06113 -41.64014,-3.22392 z m 652.41582,216.01832 c -1.30229,0 -14.32491,5.98925 -28.38962,13.02161 -92.98337,47.40329 -183.36498,53.13309 -316.71928,20.57589 -118.76868,-29.17125 -163.5656,-31.77455 -222.16856,-13.02161 -50.52878,16.14838 -95.58923,48.7043 -147.15983,106.78635 l -22.13638,24.7422 16.66906,15.10858 c 35.68269,32.5572 100.53612,70.58352 150.54398,88.03418 13.02288,4.42778 24.2223,7.81193 24.48276,7.29102 0.52091,-0.52092 4.16631,-8.59357 8.07317,-17.97004 24.48302,-56.51931 64.07182,-93.2423 120.33067,-111.73479 33.07812,-10.93922 54.17721,-14.58589 132.3145,-22.39961 72.92814,-7.29282 89.85687,-9.63847 121.37224,-17.19174 57.82159,-13.5438 108.08864,-40.10845 149.76186,-78.65618 8.5951,-8.07418 14.58818,-14.58586 13.02543,-14.58586 z m 11.19788,34.89851 c -0.52091,-0.52091 -6.51092,4.43083 -13.80373,10.94227 -28.38988,25.26439 -73.18911,51.30684 -111.21593,64.32972 -43.23596,14.84609 -78.39595,20.83688 -175.28618,30.21335 -108.35037,10.4183 -150.54526,25.2672 -188.31162,66.67996 -14.06471,15.10655 -36.9855,53.91192 -36.9855,62.24656 0,6.25099 53.65299,12.76217 106.78635,12.76217 63.2912,0 105.48559,-7.03236 163.04673,-27.34805 43.23597,-15.10655 103.40269,-48.96552 136.48081,-76.31357 21.87844,-18.23203 60.42745,-57.56012 76.83628,-78.39673 16.14837,-20.57615 44.276,-63.55293 42.45279,-65.11568 z" />
</svg>
